<?xml version="1.0" standalone="no"?>
<!DOCTYPE svg PUBLIC "-//W3C//DTD SVG 20010904//EN"
 "http://www.w3.org/TR/2001/REC-SVG-20010904/DTD/svg10.dtd">
<svg version="1.0" xmlns="http://www.w3.org/2000/svg"
 width="500.000000pt" height="500.000000pt" viewBox="0 0 500.000000 500.000000"
 preserveAspectRatio="xMidYMid meet">

<g transform="translate(0.000000,500.000000) scale(0.100000,-0.100000)"
fill="#000000" stroke="none">
<path d="M2251 3563 c-19 -42 -22 -62 -19 -158 l3 -110 28 -3 c32 -4 36 -27 7
-35 -20 -5 -20 -12 -18 -144 l3 -138 30 0 30 0 3 285 c1 157 0 300 -3 318 -9
49 -37 42 -64 -15z m39 -123 c0 -124 -1 -130 -20 -130 -20 0 -21 5 -19 98 1
86 17 162 33 162 4 0 6 -58 6 -130z m10 -330 c0 -73 -4 -120 -10 -120 -6 0
-10 47 -10 120 0 73 4 120 10 120 6 0 10 -47 10 -120z"/>
<path d="M2426 3509 c-44 -52 -29 -167 24 -184 14 -4 20 -15 20 -35 0 -16 -5
-30 -10 -32 -14 -4 -21 -125 -12 -213 6 -56 11 -70 25 -73 40 -8 47 14 47 150
0 105 -3 130 -15 134 -23 9 -19 61 5 69 28 9 50 56 50 109 0 57 -37 106 -80
106 -19 0 -36 -10 -54 -31z m73 1 c26 -13 45 -65 37 -102 -12 -61 -57 -86 -89
-50 -35 39 -34 105 3 142 23 23 25 23 49 10z m-9 -400 c0 -73 -4 -120 -10
-120 -6 0 -10 47 -10 120 0 73 4 120 10 120 6 0 10 -47 10 -120z"/>
<path d="M2620 3452 c0 -90 14 -132 46 -132 8 0 15 -7 15 -15 1 -8 2 -21 3
-27 1 -7 -4 -18 -12 -23 -20 -16 -13 -264 9 -278 9 -6 24 -7 33 -4 14 5 16 26
16 141 0 79 -4 137 -10 141 -15 9 -12 65 3 65 34 0 47 35 47 128 0 55 -4 92
-10 92 -6 0 -10 -34 -10 -81 0 -102 -9 -121 -57 -115 -19 2 -39 10 -44 17 -5
8 -9 51 -9 97 0 48 -4 82 -10 82 -6 0 -10 -36 -10 -88z m88 -339 c-4 -153 -23
-149 -24 5 -1 90 1 112 12 112 12 0 14 -22 12 -117z"/>
<path d="M2662 3493 c4 -66 28 -70 28 -4 0 39 -4 51 -16 51 -12 0 -14 -10 -12
-47z"/>
<path d="M2709 3535 c0 -3 -1 -21 -1 -40 0 -52 1 -55 12 -55 6 0 10 23 10 50
0 28 -4 50 -10 50 -5 0 -10 -2 -11 -5z"/>
<path d="M1565 2808 c-3 -7 -4 -144 -3 -303 l3 -290 50 0 50 0 0 300 0 300
-48 3 c-32 2 -49 -1 -52 -10z"/>
<path d="M1730 2770 l0 -50 50 0 50 0 0 -255 0 -255 50 0 50 0 0 255 0 255 50
0 50 0 0 50 0 50 -150 0 -150 0 0 -50z"/>
<path d="M2216 2803 c-8 -26 -126 -572 -126 -583 0 -6 22 -10 49 -10 54 0 54
0 66 78 l7 42 68 0 69 0 12 -60 12 -60 48 0 c32 0 49 4 49 13 0 6 -27 144 -62
305 l-62 292 -62 0 c-51 0 -64 -3 -68 -17z m113 -375 c1 -5 -22 -8 -50 -8 -43
0 -50 2 -45 18 2 9 12 58 21 107 25 140 26 141 51 10 13 -66 23 -123 23 -127z"/>
<path d="M2542 2518 l3 -303 148 -3 147 -3 0 51 0 50 -95 0 -95 0 -2 253 -3
252 -53 3 -52 3 2 -303z"/>
<path d="M2920 2515 l0 -305 50 0 50 0 0 305 0 305 -50 0 -50 0 0 -305z"/>
<path d="M3217 2798 c-9 -33 -127 -580 -127 -585 0 -2 24 -3 53 -1 l52 3 9 58
8 57 69 0 c67 0 69 -1 75 -27 21 -95 16 -88 72 -91 50 -3 52 -2 47 20 -11 46
-125 579 -125 583 0 3 -29 5 -64 5 -58 0 -64 -2 -69 -22z m92 -248 c12 -63 21
-118 21 -122 0 -4 -20 -8 -45 -8 -54 0 -53 -5 -25 140 11 58 20 107 20 109 0
2 2 2 4 0 2 -2 14 -56 25 -119z"/>
<path d="M570 1810 l0 -230 1930 0 1930 0 0 230 0 230 -1930 0 -1930 0 0 -230z
m1400 105 c0 -22 -4 -25 -40 -25 -36 0 -40 -2 -40 -25 0 -21 5 -25 30 -25 25
0 30 -4 30 -25 0 -21 -5 -25 -30 -25 -29 0 -30 -1 -30 -50 0 -47 -2 -50 -25
-50 l-25 0 0 125 0 125 65 0 c63 0 65 -1 65 -25z m161 15 c17 -10 19 -22 19
-113 0 -67 -4 -107 -12 -115 -7 -7 -31 -12 -55 -12 -56 0 -63 15 -63 129 0 68
4 93 16 105 18 18 66 21 95 6z m180 0 c17 -10 19 -22 19 -113 0 -67 -4 -107
-12 -115 -7 -7 -31 -12 -55 -12 -58 0 -66 18 -61 136 3 103 9 114 61 114 16 0
37 -5 48 -10z m182 -3 c15 -11 17 -27 15 -122 l-3 -110 -61 -3 -61 -3 -2 115
c-1 64 1 120 4 126 9 14 88 12 108 -3z m218 1 c1 -7 1 -30 2 -50 0 -30 4 -38
18 -38 16 0 19 8 19 51 0 47 2 50 23 47 21 -3 22 -6 22 -123 0 -117 -1 -120
-22 -123 -21 -3 -23 0 -23 48 0 44 -3 51 -17 48 -14 -3 -18 -14 -18 -48 -1
-39 -4 -45 -23 -48 -22 -3 -22 -2 -22 122 0 119 1 126 20 126 11 0 21 -6 21
-12z m189 -93 c0 -86 3 -105 15 -105 11 0 15 20 17 103 3 97 4 102 26 105 22
3 22 2 22 -103 0 -130 -6 -145 -63 -145 -24 0 -48 5 -55 12 -8 8 -12 50 -12
125 l0 113 25 0 25 0 0 -105z m244 90 c11 -12 15 -38 15 -108 -1 -120 -5 -127
-74 -127 l-55 0 0 125 0 125 49 0 c31 0 55 -6 65 -15z"/>
<path d="M2070 1810 c0 -62 3 -80 14 -80 17 0 24 17 21 50 -1 14 -3 44 -4 68
-1 30 -5 42 -16 42 -12 0 -15 -16 -15 -80z"/>
<path d="M2250 1810 c0 -62 3 -80 14 -80 17 0 24 17 21 50 -1 14 -3 44 -4 68
-1 30 -5 42 -16 42 -12 0 -15 -16 -15 -80z"/>
<path d="M2430 1809 c0 -71 2 -80 18 -77 14 3 17 16 20 81 3 72 1 77 -18 77
-18 0 -20 -6 -20 -81z"/>
<path d="M3080 1865 c0 -16 6 -25 15 -25 9 0 15 9 15 25 0 16 -6 25 -15 25 -9
0 -15 -9 -15 -25z"/>
<path d="M3080 1760 c0 -20 5 -30 15 -30 10 0 15 10 15 30 0 20 -5 30 -15 30
-10 0 -15 -10 -15 -30z"/>
</g>
</svg>
